<?xml version="1.0" encoding="UTF-8" standalone="no"?>
<!-- Uploaded to: SVG Repo, www.svgrepo.com, Generator: SVG Repo Mixer Tools -->

<svg
   fill="#000000"
   width="16"
   height="16"
   viewBox="0 0 16 16"
   enable-background="new 0 0 100 100"
   xml:space="preserve"
   version="1.1"
   id="svg3"
   sodipodi:docname="icon_velocity.svg"
   inkscape:version="1.3.2 (091e20e, 2023-11-25, custom)"
   xmlns:inkscape="http://www.inkscape.org/namespaces/inkscape"
   xmlns:sodipodi="http://sodipodi.sourceforge.net/DTD/sodipodi-0.dtd"
   xmlns="http://www.w3.org/2000/svg"
   xmlns:svg="http://www.w3.org/2000/svg"><defs
   id="defs3" /><sodipodi:namedview
   id="namedview3"
   pagecolor="#ffffff"
   bordercolor="#000000"
   borderopacity="0.25"
   inkscape:showpageshadow="2"
   inkscape:pageopacity="0.0"
   inkscape:pagecheckerboard="0"
   inkscape:deskcolor="#d1d1d1"
   inkscape:zoom="33.17745"
   inkscape:cx="14.090896"
   inkscape:cy="7.1584766"
   inkscape:window-width="2560"
   inkscape:window-height="1369"
   inkscape:window-x="1912"
   inkscape:window-y="-8"
   inkscape:window-maximized="1"
   inkscape:current-layer="g3" />
<g
   id="g3"
   transform="matrix(0.26578441,0,0,0.26578441,-5.3156883,-5.3156883)">
	<path
   d="M 80,21.5 C 80,20.3 79.3,20 78.9,20 H 53.1 c -1.9,0 -1.9,1.9 -1.9,1.9 v 3.6 c 0,1.6 1,2 1.5,2 h 18 c 0.7,0.1 1.9,0.6 1.9,2.6 v 17 c 0.1,0.5 0.4,1.6 1.9,1.6 h 4 c 0,0 1.6,0 1.6,-1.9 V 21.5 Z"
   id="path1"
   style="fill:#f9f9f9" />
	<path
   d="m 64.4,37.1 c 0.1,-1.2 -0.7,-1.5 -1.1,-1.5 H 37.5 c -1.9,0 -1.9,1.9 -1.9,1.9 v 3.6 c 0,1.6 1,2 1.5,2 h 18 c 0.7,0.1 1.9,0.6 1.9,2.6 v 17 c 0.1,0.5 0.4,1.6 1.9,1.6 h 4 c 0,0 1.6,0 1.6,-1.9 V 37.1 Z"
   id="path2"
   style="fill:#f9f9f9" />
	<path
   d="m 24.2,78.5 c 0.2,0.2 1.2,1 2.6,-0.4 l 13,-13 c 0.4,-0.4 1.5,-1.2 1.5,0.5 v 12.8 c 0.1,0.5 0.4,1.6 1.9,1.6 h 4 c 0,0 1.6,0 1.6,-1.9 V 52.8 c 0,-1.2 -0.7,-1.4 -1.1,-1.5 H 21.9 C 20,51.3 20,53.2 20,53.2 v 3.6 c 0,1.6 1,2 1.5,2 h 12 c 0.5,0 2,0.1 0.6,1.5 v 0 L 21.6,73 c 0,0 -1.5,1.4 -0.2,2.6 z"
   id="path3"
   style="fill:#f9f9f9" />
</g>
</svg>
